<svg xmlns="http://www.w3.org/2000/svg" xmlns:xlink="http://www.w3.org/1999/xlink" id="Layer_1" x="0px" y="0px" width="72px" height="72px" viewBox="0 0 72 72" xml:space="preserve"><g>	<g>		<g>			<path d="M70.594,29.355h-9c-0.777,0-1.406,0.629-1.406,1.406v7.102c0,0.776,0.629,1.406,1.406,1.406S63,38.64,63,37.863v-5.695    h6.188v37.02h-3.094H63V48.41c0-0.777-0.629-1.406-1.406-1.406s-1.406,0.629-1.406,1.406v20.777h-2.813V40.078    c0-0.776-0.629-1.406-1.406-1.406h-9c-0.777,0-1.406,0.63-1.406,1.406v29.109H42.75V49.922c0-0.776-0.629-1.406-1.406-1.406h-9    c-0.777,0-1.406,0.63-1.406,1.406v19.266h-2.813V57.99c0-0.776-0.629-1.406-1.406-1.406h-9c-0.777,0-1.406,0.63-1.406,1.406    v11.197H4.219c-0.775,0-1.406-0.631-1.406-1.406V4.219c0-0.775,0.631-1.406,1.406-1.406h36.277v9.282    c0,2.326,1.893,4.219,4.219,4.219h9.281v17.296c0,0.776,0.63,1.406,1.406,1.406c0.777,0,1.406-0.63,1.406-1.406V14.907    c0-0.373-0.148-0.73-0.412-0.995l-13.5-13.5C42.633,0.148,42.275,0,41.902,0H4.219C1.893,0,0,1.893,0,4.219v63.563    C0,70.107,1.893,72,4.219,72h66.375C71.371,72,72,71.37,72,70.594V30.762C72,29.985,71.371,29.355,70.594,29.355z M43.309,4.801    l8.699,8.699h-7.293c-0.775,0-1.406-0.631-1.406-1.406V4.801z M25.313,69.188h-6.188v-9.791h6.188V69.188z M39.938,69.188H33.75    V51.328h6.188V69.188z M54.563,69.188h-6.188V41.484h6.188V69.188z"></path>		</g>	</g>	<g>		<g>			<path fill="#1D73F8" d="M62.588,41.881c-0.262-0.263-0.625-0.412-0.994-0.412s-0.732,0.149-0.994,0.412    c-0.262,0.262-0.412,0.625-0.412,0.994c0,0.37,0.15,0.732,0.412,0.994s0.625,0.412,0.994,0.412s0.732-0.15,0.994-0.412    S63,43.245,63,42.875C63,42.506,62.85,42.143,62.588,41.881z"></path>		</g>	</g>	<g>		<g>			<path fill="#1D73F8" d="M20.472,7.696c-0.776,0-1.406,0.63-1.406,1.406v2.53C12.592,12.335,7.538,17.833,7.538,24.49    c0,7.132,5.802,12.934,12.934,12.934c6.657,0,12.155-5.054,12.858-11.527h2.53c0.777,0,1.406-0.63,1.406-1.406    C37.266,15.23,29.732,7.696,20.472,7.696z M20.472,34.612c-5.581,0-10.122-4.541-10.122-10.122c0-5.104,3.798-9.337,8.715-10.024    V24.49c0,0.776,0.63,1.406,1.406,1.406h10.024C29.809,30.814,25.576,34.612,20.472,34.612z M21.878,23.084L21.878,23.084V10.579    c6.589,0.661,11.844,5.917,12.505,12.505H21.878z"></path>		</g>	</g>	<g>		<g>			<path fill="#1D73F8" d="M35.859,41.379H9c-0.777,0-1.406,0.63-1.406,1.406S8.223,44.191,9,44.191h26.859    c0.777,0,1.406-0.63,1.406-1.406S36.637,41.379,35.859,41.379z"></path>		</g>	</g>	<g>		<g>			<path fill="#1D73F8" d="M18,48.164H9c-0.777,0-1.406,0.63-1.406,1.406S8.223,50.977,9,50.977h9c0.777,0,1.406-0.63,1.406-1.406    S18.777,48.164,18,48.164z"></path>		</g>	</g>	<g>		<g>			<path fill="#1D73F8" d="M26.037,48.576c-0.261-0.262-0.625-0.412-0.994-0.412c-0.371,0-0.732,0.15-0.994,0.412    c-0.263,0.262-0.412,0.625-0.412,0.994s0.149,0.732,0.412,0.994c0.262,0.262,0.623,0.412,0.994,0.412    c0.37,0,0.733-0.15,0.994-0.412c0.262-0.262,0.412-0.625,0.412-0.994S26.298,48.838,26.037,48.576z"></path>		</g>	</g></g></svg>