<svg xmlns="http://www.w3.org/2000/svg" xmlns:xlink="http://www.w3.org/1999/xlink" id="Layer_1" x="0px" y="0px" viewBox="0 0 80 80" style="enable-background:new 0 0 80 80;" xml:space="preserve"><style type="text/css">	.st0{fill:#1D73F8;}</style><g>	<g>		<path d="M77.7,39.5H59.2v-2.6h5c0.6,0,1.1-0.5,1.1-1.1s-0.5-1.1-1.1-1.1h-5V32h3.5c1.3,0,2.5-0.5,3.4-1.4l7.5-7.5   c0.5,0.2,1,0.4,1.6,0.4c1,0,1.9-0.4,2.5-1.1c0.7-0.7,1.1-1.6,1.1-2.5s-0.4-1.9-1.1-2.5c-0.7-0.7-1.6-1.1-2.5-1.1   c-1,0-1.9,0.4-2.5,1.1c-0.7,0.7-1.1,1.6-1.1,2.5c0,0.6,0.1,1.1,0.4,1.6l-7.5,7.5c-0.5,0.5-1.1,0.7-1.8,0.7h-3.5v-2.5   c0-3.3-2.7-6-6-6h-2.5V11c1.4-0.5,2.5-1.8,2.5-3.4c0-2-1.6-3.6-3.6-3.6c-2,0-3.6,1.6-3.6,3.6c0,1.6,1,2.9,2.5,3.4v10.2h-2.6v-5   c0-0.6-0.5-1.1-1.1-1.1c-0.6,0-1.1,0.5-1.1,1.1v5h-2.6V2.6c0-0.6-0.5-1.1-1.1-1.1c-0.6,0-1.1,0.5-1.1,1.1v18.5h-2.6v-5   c0-0.6-0.5-1.1-1.1-1.1s-1.1,0.5-1.1,1.1v5H31v-3.5c0-1.3-0.5-2.5-1.4-3.4L22,6.7c0.7-1.3,0.4-3-0.7-4.1c-1.4-1.4-3.7-1.4-5.1,0   c-1.4,1.4-1.4,3.7,0,5.1c0.7,0.7,1.6,1.1,2.5,1.1c0.5,0,1.1-0.1,1.6-0.4l7.5,7.5c0.5,0.5,0.7,1.1,0.7,1.8v3.5h-2.5   c-0.5,0-1,0.1-1.5,0.2c-0.6,0.2-1,0.8-0.8,1.4c0.2,0.6,0.8,1,1.4,0.8c0.3-0.1,0.6-0.1,0.9-0.1h27c2.1,0,3.8,1.7,3.8,3.8v27   c0,0.3,0,0.6-0.1,0.9c-0.2,0.6,0.2,1.2,0.8,1.4c0.1,0,0.2,0,0.3,0c0.5,0,1-0.3,1.1-0.9c0.1-0.5,0.2-1,0.2-1.5v-2.5h10.2   c0.5,1.4,1.8,2.5,3.4,2.5c2,0,3.6-1.6,3.6-3.6s-1.6-3.6-3.6-3.6c-1.6,0-2.9,1-3.4,2.5H59.2v-2.6h5c0.6,0,1.1-0.5,1.1-1.1   s-0.5-1.1-1.1-1.1h-5v-2.6h18.5c0.6,0,1.1-0.5,1.1-1.1C78.8,40,78.3,39.5,77.7,39.5z M74.3,18.9c0.2-0.2,0.6-0.4,0.9-0.4   s0.7,0.1,0.9,0.4s0.4,0.6,0.4,0.9c0,0.3-0.1,0.7-0.4,0.9s-0.6,0.4-0.9,0.4s-0.7-0.1-0.9-0.4c-0.2-0.2-0.4-0.6-0.4-0.9   S74,19.1,74.3,18.9z M19.8,6c-0.5,0.5-1.3,0.5-1.8,0c-0.5-0.5-0.5-1.3,0-1.8c0.3-0.3,0.6-0.4,0.9-0.4c0.3,0,0.7,0.1,0.9,0.4   C20.3,4.7,20.3,5.5,19.8,6z M49.5,8.8c-0.7,0-1.3-0.6-1.3-1.3s0.6-1.3,1.3-1.3c0.7,0,1.3,0.6,1.3,1.3S50.2,8.8,49.5,8.8z    M72.8,49.1c0.7,0,1.3,0.6,1.3,1.3c0,0.7-0.6,1.3-1.3,1.3c-0.7,0-1.3-0.6-1.3-1.3C71.5,49.7,72,49.1,72.8,49.1z"></path>	</g></g><g>	<g>		<path d="M63,73.6c-1.1-1.1-2.8-1.3-4.1-0.7l-7.5-7.5c-0.5-0.5-0.7-1.1-0.7-1.8v-3.5h2.5c0.5,0,1-0.1,1.5-0.2   c0.6-0.2,1-0.8,0.8-1.4c-0.2-0.6-0.8-1-1.4-0.8c-0.3,0.1-0.6,0.1-0.9,0.1h-27c-2.1,0-3.8-1.7-3.8-3.8v-27c0-0.3,0-0.6,0.1-0.9   c0.2-0.6-0.2-1.2-0.8-1.4c-0.6-0.2-1.2,0.2-1.4,0.8c-0.1,0.5-0.2,1-0.2,1.5v2.5H10c-0.5-1.4-1.8-2.5-3.4-2.5c-2,0-3.6,1.6-3.6,3.6   s1.6,3.6,3.6,3.6c1.6,0,2.9-1,3.4-2.5h10.2v2.6h-5c-0.6,0-1.1,0.5-1.1,1.1c0,0.6,0.5,1.1,1.1,1.1h5v2.6H1.7   c-0.6,0-1.1,0.5-1.1,1.1s0.5,1.1,1.1,1.1h18.5v2.6h-5c-0.6,0-1.1,0.5-1.1,1.1c0,0.6,0.5,1.1,1.1,1.1h5v2.6h-3.5   c-1.3,0-2.5,0.5-3.4,1.4l-7.5,7.5c-0.5-0.2-1-0.4-1.6-0.4c-1,0-1.9,0.4-2.5,1.1c-0.7,0.7-1.1,1.6-1.1,2.5c0,1,0.4,1.9,1.1,2.5   c0.7,0.7,1.6,1.1,2.5,1.1S6,64.7,6.7,64c0.7-0.7,1.1-1.6,1.1-2.5c0-0.6-0.1-1.1-0.4-1.6l7.5-7.5c0.5-0.5,1.1-0.7,1.8-0.7h3.5v2.5   c0,3.3,2.7,6,6,6h2.5v10.2c-1.4,0.5-2.5,1.8-2.5,3.4c0,2,1.6,3.6,3.6,3.6s3.6-1.6,3.6-3.6c0-1.6-1-2.9-2.5-3.4V60.2h2.6v5   c0,0.6,0.5,1.1,1.1,1.1s1.1-0.5,1.1-1.1v-5h2.6v18.5c0,0.6,0.5,1.1,1.1,1.1c0.6,0,1.1-0.5,1.1-1.1V60.2h2.6v5   c0,0.6,0.5,1.1,1.1,1.1c0.6,0,1.1-0.5,1.1-1.1v-5h2.6v3.5c0,1.3,0.5,2.5,1.4,3.4l7.5,7.5c-0.7,1.3-0.4,3,0.7,4.1   c0.7,0.7,1.6,1.1,2.5,1.1s1.8-0.4,2.5-1.1C64.4,77.3,64.4,75,63,73.6z M6.6,32.1c-0.7,0-1.3-0.6-1.3-1.3c0-0.7,0.6-1.3,1.3-1.3   s1.3,0.6,1.3,1.3C7.9,31.5,7.3,32.1,6.6,32.1z M5,62.4c-0.2,0.2-0.6,0.4-0.9,0.4c-0.3,0-0.7-0.1-0.9-0.4c-0.2-0.2-0.4-0.6-0.4-0.9   s0.1-0.7,0.4-0.9c0.2-0.2,0.6-0.4,0.9-0.4s0.7,0.1,0.9,0.4c0.2,0.2,0.4,0.6,0.4,0.9S5.3,62.1,5,62.4z M31.2,73.7   c0,0.7-0.6,1.3-1.3,1.3c-0.7,0-1.3-0.6-1.3-1.3c0-0.7,0.6-1.3,1.3-1.3C30.6,72.4,31.2,73,31.2,73.7z M61.4,77.1   c-0.5,0.5-1.3,0.5-1.8,0c-0.5-0.5-0.5-1.3,0-1.8c0.3-0.3,0.6-0.4,0.9-0.4s0.7,0.1,0.9,0.4C61.9,75.8,61.9,76.6,61.4,77.1z"></path>	</g></g><g>	<g>		<path class="st0" d="M51.8,37.6c0-2.5-1.8-4.5-4.2-5.2c0.1-0.3,0.1-0.6,0.1-0.9c0-2.3-2.1-4.2-4.6-4.2c-1.4,0-2.6,0.6-3.4,1.4   c-0.8-0.9-2.1-1.4-3.4-1.4c-2.5,0-4.6,1.9-4.6,4.2c0,0.3,0,0.6,0.1,0.9c-2.5,0.7-4.2,2.8-4.2,5.2c0,1.2,0.4,2.3,1.2,3.3   c-0.8,1-1.2,2.2-1.2,3.5c0,1.9,1,3.8,2.8,4.9c0,0,0,0,0,0c0,2.7,2.4,4.8,5.3,4.8c1.7,0,3.2-0.7,4.1-1.8c1,1.1,2.5,1.8,4.1,1.8   c2.8,0,5.1-2,5.3-4.5c1.7-1,2.8-2.7,2.8-4.6c0-1.4-0.6-2.7-1.6-3.7C51.3,40.3,51.8,38.9,51.8,37.6z M47.8,42.3   c1.1,0.6,1.8,1.6,1.8,2.7c0,0.8-0.4,1.6-1,2.2c-0.6-1.1-1.7-2-3-2.4c-0.6-0.2-1.2,0.1-1.4,0.8c-0.2,0.6,0.1,1.2,0.8,1.4   c1.2,0.4,2,1.3,2,2.4c0,1.4-1.3,2.5-3,2.5c-1.6,0-3-1.1-3-2.5v-7.4c0-1.4,1.3-2.5,3-2.5c0.6,0,1.1-0.5,1.1-1.1S44.4,37,43.8,37   c-1.1,0-2.1,0.3-3,0.8v-1.5c0-0.6-0.5-1.1-1.1-1.1s-1.1,0.5-1.1,1.1v6.4c-0.4-0.2-0.8-0.4-1.3-0.6C36.6,42,36,42.3,35.8,43   c-0.2,0.6,0.1,1.2,0.8,1.4c1.2,0.4,2,1.3,2,2.4v2.5c0,1.4-1.3,2.5-3,2.5c-1.6,0-3-1.1-3-2.5c0-0.6,0.3-1.2,0.7-1.6   c0.4-0.4,0.5-1.2,0-1.6c-0.4-0.4-1.2-0.5-1.6,0c-0.3,0.3-0.5,0.6-0.7,0.9c-0.7-0.7-1.1-1.6-1.1-2.5c0-1.7,1.3-3.2,3.2-3.6   c0.6-0.1,1-0.8,0.9-1.4c-0.1-0.6-0.8-1-1.4-0.9c-0.8,0.2-1.5,0.5-2.1,0.9c-0.4-0.5-0.6-1.1-0.6-1.7c0-1.7,1.6-3.1,3.7-3.1   c0,0,0,0,0,0c0.3,0,0.5-0.1,0.7-0.3c0.4-0.4,0.5-1,0.2-1.5c0,0,0,0,0,0c0,0,0,0,0,0c0,0,0,0-0.1-0.1c0,0,0,0,0,0   c-0.2-0.2-0.4-0.6-0.4-1.1c0-1.1,1-1.9,2.3-1.9s2.3,0.9,2.3,1.9c0,0.6,0.5,1.1,1.1,1.1s1.1-0.5,1.1-1.1c0-1.1,1-1.9,2.3-1.9   s2.3,0.9,2.3,1.9c0,0.3-0.1,0.5-0.2,0.7c-0.7,0.1-1.3,0.2-1.9,0.5c-0.6,0.2-0.9,0.9-0.6,1.5c0.2,0.6,0.9,0.9,1.5,0.6   c0.5-0.2,1-0.3,1.6-0.3c0,0,0,0,0,0c0,0,0,0,0,0c2,0,3.7,1.4,3.7,3.1c0,1.1-0.7,2.1-1.8,2.7c-0.4,0.2-0.6,0.6-0.6,1   C47.2,41.7,47.4,42.1,47.8,42.3z"></path>	</g></g></svg>