<svg xmlns="http://www.w3.org/2000/svg" xmlns:xlink="http://www.w3.org/1999/xlink" width="45" height="45" viewBox="0 0 45 45"><defs><clipPath id="clip-m-tech-html5"><rect width="45" height="45"></rect></clipPath></defs><g id="m-tech-html5" clip-path="url(#clip-m-tech-html5)"><rect width="45" height="45" fill="#fff"></rect><g id="HTML5_logo_and_wordmark" transform="translate(11 6)"><path id="Path_31303" data-name="Path 31303" d="M108.4,0h1.452V1.439h1.338V0h1.452V4.355H111.19V2.9h-1.326V4.355H108.4m6.161-2.9h-1.281V0H117.3V1.452h-1.288v2.9h-1.452M117.938,0h1.521l.934,1.534L121.327,0h1.521V4.355H121.4V2.2l-1.016,1.565L119.364,2.2V4.355h-1.427M123.568,0h1.452V2.916h2.058V4.355h-3.51" transform="translate(-106.266)"></path><path id="Path_31304" data-name="Path 31304" d="M76.683,123.98,74.6,100.6H97.5l-2.083,23.368-9.386,2.6" transform="translate(-74.6 -94.25)" fill="#e44d26"></path><path id="Path_31305" data-name="Path 31305" d="M256,153.061V131h9.361l-1.786,19.947" transform="translate(-244.55 -122.731)" fill="#f16529"></path><path id="Path_31306" data-name="Path 31306" d="M142,176.3h7.2v2.866h-4.052l.265,2.935H149.2v2.859h-6.413m.126,1.439h2.878l.2,2.291,3.207.858v2.992l-5.883-1.641" transform="translate(-137.746 -165.172)" fill="#ebebeb"></path><path id="Path_31307" data-name="Path 31307" d="M262.983,176.3H255.8v2.866h6.918m-.259,2.935H255.8v2.866h3.535L259,188.691l-3.2.858v2.979l5.87-1.629" transform="translate(-244.362 -165.172)" fill="#fff"></path></g></g></svg>